<svg width="297" height="58" viewBox="0 0 297 58" fill="none" xmlns="http://www.w3.org/2000/svg">
<rect x="0.668139" y="0.668139" width="295.317" height="56.1237" fill="url(#paint0_linear_186_977)" stroke="black" stroke-width="1.33628"/>
<path d="M3.33984 56.1228V29.3973V3.33984H295.317" stroke="#F8F7F7" stroke-width="6.68139"/>
<path d="M126.613 41.3768V39.7065H124.942V36.3658H139.975V34.6954H124.942V33.0251H139.975V31.3547H123.272V29.6844H128.283V26.3437H131.624V29.6844H139.975V19.6623H143.316V24.6734H148.327V26.3437H143.316V38.0361H128.283V39.7065H143.316V41.3768H126.613ZM126.613 24.6734V23.003H123.272V21.3327H128.283V19.6623H131.624V21.3327H136.635V23.003H133.294V24.6734H134.964V26.3437H136.635V28.014H133.294V26.3437H131.624V24.6734H128.283V26.3437H126.613V28.014H123.272V26.3437H124.942V24.6734H126.613ZM153.338 31.3547V29.6844H151.668V28.014H149.997V23.003H151.668V21.3327H153.338V19.6623H160.02V21.3327H161.69V23.003H168.371V19.6623H171.712V31.3547H168.371V28.014H161.69V29.6844H160.02V31.3547H153.338ZM155.009 29.6844H158.349V28.014H160.02V23.003H158.349V21.3327H155.009V23.003H153.338V28.014H155.009V29.6844ZM168.371 24.6734H163.36V26.3437H168.371V24.6734ZM151.668 34.6954H155.009V33.0251H168.371V34.6954H171.712V39.7065H168.371V41.3768H155.009V39.7065H151.668V34.6954ZM156.679 39.7065H166.701V38.0361H168.371V36.3658H166.701V34.6954H156.679V36.3658H155.009V38.0361H156.679V39.7065Z" fill="black"/>
<defs>
<linearGradient id="paint0_linear_186_977" x1="103.562" y1="-72.159" x2="89.0184" y2="90.1924" gradientUnits="userSpaceOnUse">
<stop offset="0.589516" stop-color="#D9D9D9"/>
<stop offset="1" stop-color="#737373"/>
</linearGradient>
</defs>
</svg>
