<svg width="334" height="68" viewBox="0 0 334 68" fill="none" xmlns="http://www.w3.org/2000/svg">
<path d="M329.407 0.000650644V32.3065V63.8047H-0.000126004" stroke="#696969" stroke-width="7.41907"/>
<rect x="0.741907" y="0.741907" width="327.923" height="62.3202" fill="url(#paint0_linear_247_2)" stroke="black" stroke-width="1.48381"/>
<path d="M3.70947 62.3206V32.6443V3.70996H327.923" stroke="#DAD9D9" stroke-width="7.41907"/>
<path d="M109.967 45.7095H106.257V21.5975H109.967V45.7095ZM100.693 42H98.8381V43.8548H87.7095V42H85.8548V23.4523H89.5643V32.7262H91.4191V23.4523H95.1286V32.7262H96.9834V23.4523H100.693V42ZM91.4191 34.5809H89.5643V42H91.4191V34.5809ZM96.9834 34.5809H95.1286V42H96.9834V34.5809ZM139.643 45.7095H135.934V21.5975H139.643V45.7095ZM130.369 42H128.514V43.8548H117.386V42H115.531V23.4523H119.241V32.7262H121.095V23.4523H124.805V32.7262H126.66V23.4523H130.369V42ZM121.095 34.5809H119.241V42H121.095V34.5809ZM126.66 34.5809H124.805V42H126.66V34.5809ZM161.9 34.5809V23.4523H165.61V29.0166H180.448V23.4523H184.157V34.5809H182.303V36.4357H174.884V42H186.012V43.8548H160.046V42H171.174V36.4357H163.755V34.5809H161.9ZM180.448 34.5809V30.8714H165.61V34.5809H180.448ZM210.124 45.7095H206.415V21.5975H210.124V32.7262H211.979V21.5975H215.689V45.7095H211.979V34.5809H210.124V45.7095ZM191.577 42H189.722V23.4523H193.431V42H200.85V40.1452H204.56V42H202.705V43.8548H191.577V42ZM243.51 45.7095H239.801V21.5975H243.51V45.7095ZM224.962 40.1452H226.817V25.3071H219.398V23.4523H230.527V40.1452H228.672V42H226.817V43.8548H221.253V42H224.962V40.1452Z" fill="black"/>
<defs>
<linearGradient id="paint0_linear_247_2" x1="142.5" y1="-36" x2="137.887" y2="128.246" gradientUnits="userSpaceOnUse">
<stop offset="0.190177" stop-color="#D9D9D9"/>
<stop offset="1" stop-color="#737373"/>
</linearGradient>
</defs>
</svg>
