<svg width="187" height="22" viewBox="0 0 187 22" fill="none" xmlns="http://www.w3.org/2000/svg">
<path d="M0.727273 0.181818H14.3636V2.90909H8.90909V22H6.18182V2.90909H0.727273V0.181818ZM19.8288 2.90909H22.5561V19.2727H19.8288V2.90909ZM22.5561 19.2727H30.7379V22H22.5561V19.2727ZM30.7379 2.90909H33.4652V19.2727H30.7379V2.90909ZM22.5561 0.181818H30.7379V2.90909H22.5561V0.181818ZM58.032 0.181818H60.7592V5.63636H63.4865V8.36364H60.7592V22H58.032V0.181818ZM68.9411 8.36364H66.2138V5.63636H68.9411V0.181818H71.6683V22H68.9411V8.36364ZM63.4865 8.36364H66.2138V13.8182H63.4865V8.36364ZM77.1335 0.181818H79.8608V8.36364H77.1335V0.181818ZM88.0426 0.181818H90.7699V8.36364H88.0426V0.181818ZM82.5881 11.0909H85.3153V22H82.5881V11.0909ZM79.8608 8.36364H82.5881V11.0909H79.8608V8.36364ZM85.3153 8.36364H88.0426V11.0909H85.3153V8.36364ZM115.337 0.181818H118.064V19.2727H128.973V22H115.337V0.181818ZM134.438 2.90909H137.165V19.2727H134.438V2.90909ZM137.165 19.2727H145.347V22H137.165V19.2727ZM145.347 2.90909H148.075V19.2727H145.347V2.90909ZM137.165 0.181818H145.347V2.90909H137.165V0.181818ZM158.994 19.2727H156.267V13.8182H158.994V19.2727ZM158.994 19.2727H161.722V22H158.994V19.2727ZM153.54 0.181818H156.267V13.8182H153.54V0.181818ZM164.449 0.181818H167.176V13.8182H164.449V0.181818ZM161.722 13.8182H164.449V19.2727H161.722V13.8182ZM172.641 0.181818H186.278V2.90909H175.369V8.36364H183.55V11.0909H175.369V19.2727H186.278V22H172.641V0.181818Z" fill="white"/>
</svg>
