<svg width="334" height="68" viewBox="0 0 334 68" fill="none" xmlns="http://www.w3.org/2000/svg">
<path d="M329.406 0.000162363V32.306V63.8042H-0.000614285" stroke="#696969" stroke-width="7.41907"/>
<rect x="0.741907" y="0.741907" width="327.923" height="62.3202" fill="url(#paint0_linear_303_668)" stroke="black" stroke-width="1.48381"/>
<path d="M3.70898 62.3203V32.644V3.70959H327.922" stroke="#DAD9D9" stroke-width="7.41907"/>
<path d="M110.983 34.5809H103.564V32.7262H101.71V30.8714H99.8548V25.3071H101.71V23.4523H103.564V21.5975H110.983V23.4523H112.838V25.3071H114.693V30.8714H112.838V32.7262H110.983V34.5809ZM123.967 34.5809H120.257V21.5975H123.967V34.5809ZM105.419 25.3071H103.564V30.8714H105.419V32.7262H109.129V30.8714H110.983V25.3071H109.129V23.4523H105.419V25.3071ZM103.564 43.8548H101.71V36.4357H105.419V40.1452H120.257V36.4357H123.967V43.8548H122.112V45.7095H103.564V43.8548ZM120.257 42H105.419V43.8548H120.257V42ZM144.369 27.1619V29.0166H133.241V32.7262H144.369V34.5809H131.386V32.7262H129.531V27.1619H140.66V23.4523H129.531V21.5975H144.369V25.3071H149.934V21.5975H153.643V34.5809H149.934V30.8714H144.369V29.0166H149.934V27.1619H144.369ZM131.386 36.4357H153.643V43.8548H151.788V45.7095H149.934V38.2905H131.386V36.4357ZM179.61 32.7262V30.8714H177.755V29.0166H174.046V23.4523H177.755V21.5975H185.174V23.4523H188.884V29.0166H185.174V30.8714H183.319V32.7262H192.593V21.5975H196.303V27.1619H201.867V29.0166H196.303V36.4357H192.593V34.5809H174.046V32.7262H179.61ZM179.61 23.4523V25.3071H177.755V27.1619H179.61V29.0166H183.319V27.1619H185.174V25.3071H183.319V23.4523H179.61ZM179.61 43.8548H196.303V45.7095H177.755V43.8548H175.9V36.4357H179.61V43.8548ZM205.577 34.5809V29.0166H224.124V25.3071H205.577V23.4523H227.834V30.8714H209.286V34.5809H227.834V36.4357H224.124V42H229.689V43.8548H203.722V42H209.286V36.4357H207.431V34.5809H205.577ZM220.415 36.4357H212.996V42H220.415V36.4357Z" fill="black"/>
<defs>
<linearGradient id="paint0_linear_303_668" x1="94.5" y1="-70" x2="84.8663" y2="116.017" gradientUnits="userSpaceOnUse">
<stop offset="0.3793" stop-color="#D9D9D9"/>
<stop offset="0.892071" stop-color="#737373"/>
</linearGradient>
</defs>
</svg>
