<svg width="523" height="36" viewBox="0 0 523 36" fill="none" xmlns="http://www.w3.org/2000/svg">
<path d="M20.4051 25.7956H17.854V18.1422H20.4051V25.7956ZM25.5073 0.284445V15.5911H30.6095V0.284445H33.1606V36H30.6095V18.1422H25.5073V36H22.9562V10.4889H-0.0038207V7.93778H22.9562V0.284445H25.5073ZM2.54729 25.7956V18.1422H5.0984V25.7956H2.54729ZM7.64951 30.8978V28.3467H15.3028V30.8978H7.64951ZM7.64951 25.7956V28.3467H5.0984V25.7956H7.64951ZM7.64951 18.1422H5.0984V15.5911H7.64951V18.1422ZM7.64951 15.5911V13.04H15.3028V15.5911H7.64951ZM17.854 25.7956V28.3467H15.3028V25.7956H17.854ZM17.854 18.1422H15.3028V15.5911H17.854V18.1422ZM17.854 0.284445V2.83556H5.0984V0.284445H17.854ZM58.6717 7.93778H66.3251V0.284445H68.8762V20.6933H66.3251V10.4889H58.6717V7.93778ZM58.6717 18.1422H56.1206V15.5911H58.6717V18.1422ZM58.6717 20.6933V18.1422H61.2228V20.6933H58.6717ZM40.814 25.7956V23.2444H68.8762V36H66.3251V25.7956H40.814ZM40.814 18.1422V20.6933H38.2628V18.1422H40.814ZM40.814 15.5911H43.3651V18.1422H40.814V15.5911ZM45.9162 13.04V15.5911H43.3651V13.04H45.9162ZM45.9162 7.93778H48.4673V13.04H45.9162V7.93778ZM51.0184 13.04V7.93778H53.5695V13.04H51.0184ZM51.0184 7.93778H48.4673V0.284445H51.0184V7.93778ZM56.1206 13.04V15.5911H53.5695V13.04H56.1206ZM96.9384 18.1422H94.3873V13.04H96.9384V18.1422ZM79.0806 36V28.3467H104.592V25.7956H79.0806V23.2444H107.143V30.8978H81.6317V33.4489H107.143V36H79.0806ZM79.0806 18.1422V13.04H81.6317V18.1422H79.0806ZM107.143 7.93778H112.245V10.4889H107.143V20.6933H104.592V0.284445H107.143V7.93778ZM76.5295 7.93778V5.38667H99.4895V7.93778H76.5295ZM94.3873 18.1422V20.6933H81.6317V18.1422H94.3873ZM94.3873 10.4889V13.04H81.6317V10.4889H94.3873ZM94.3873 0.284445V2.83556H81.6317V0.284445H94.3873ZM147.976 30.8978H130.118V0.284445H147.976V15.5911H153.078V0.284445H155.629V36H153.078V18.1422H147.976V30.8978ZM132.669 28.3467H145.424V2.83556H132.669V28.3467ZM160.731 0.284445H163.282V36H160.731V0.284445ZM188.793 30.8978V28.3467H191.344V30.8978H188.793ZM188.793 25.7956V28.3467H186.242V25.7956H188.793ZM170.936 30.8978H168.384V28.3467H170.936V30.8978ZM170.936 28.3467V25.7956H173.487V28.3467H170.936ZM176.038 25.7956H173.487V20.6933H176.038V25.7956ZM198.998 0.284445V36H196.447V0.284445H198.998ZM176.038 20.6933V13.04H178.589V20.6933H176.038ZM181.14 20.6933V13.04H183.691V20.6933H181.14ZM181.14 13.04H178.589V0.284445H181.14V13.04ZM186.242 25.7956H183.691V20.6933H186.242V25.7956ZM227.06 30.8978V28.3467H229.611V30.8978H227.06ZM227.06 25.7956V28.3467H224.509V25.7956H227.06ZM209.202 30.8978H206.651V28.3467H209.202V30.8978ZM209.202 28.3467V25.7956H211.753V28.3467H209.202ZM214.304 25.7956H211.753V20.6933H214.304V25.7956ZM237.264 0.284445V36H234.713V0.284445H237.264ZM214.304 20.6933V13.04H216.856V20.6933H214.304ZM219.407 20.6933V13.04H221.958V20.6933H219.407ZM219.407 13.04H216.856V2.83556H206.651V0.284445H229.611V2.83556H219.407V13.04ZM224.509 25.7956H221.958V20.6933H224.509V25.7956ZM247.469 36V28.3467H272.98V25.7956H247.469V23.2444H275.531V30.8978H250.02V33.4489H275.531V36H247.469ZM247.469 15.5911V5.38667H272.98V2.83556H247.469V0.284445H275.531V7.93778H250.02V13.04H275.531V15.5911H247.469ZM244.918 20.6933V18.1422H278.082V20.6933H244.918ZM318.915 5.38667V13.04H316.364V5.38667H318.915ZM301.057 36V23.2444H303.608V25.7956H326.568V23.2444H329.119V36H301.057ZM301.057 13.04H298.506V5.38667H301.057V13.04ZM301.057 15.5911V13.04H303.608V15.5911H301.057ZM301.057 5.38667V2.83556H303.608V5.38667H301.057ZM329.119 0.284445V20.6933H326.568V0.284445H329.119ZM316.364 13.04V15.5911H313.813V13.04H316.364ZM316.364 5.38667H313.813V2.83556H316.364V5.38667ZM303.608 2.83556V0.284445H313.813V2.83556H303.608ZM303.608 33.4489H326.568V28.3467H303.608V33.4489ZM303.608 18.1422V15.5911H313.813V18.1422H303.608ZM357.182 7.93778V10.4889H339.324V15.5911H357.182V18.1422H336.773V7.93778H354.631V2.83556H336.773V0.284445H357.182V5.38667H364.835V0.284445H367.386V20.6933H364.835V15.5911H357.182V13.04H364.835V7.93778H357.182ZM339.324 25.7956V23.2444H367.386V36H364.835V25.7956H339.324ZM395.448 25.7956H392.897V18.1422H395.448V25.7956ZM400.551 0.284445V15.5911H405.653V0.284445H408.204V36H405.653V18.1422H400.551V36H397.999V10.4889H375.039V7.93778H397.999V0.284445H400.551ZM377.591 25.7956V18.1422H380.142V25.7956H377.591ZM382.693 30.8978V28.3467H390.346V30.8978H382.693ZM382.693 25.7956V28.3467H380.142V25.7956H382.693ZM382.693 18.1422H380.142V15.5911H382.693V18.1422ZM382.693 15.5911V13.04H390.346V15.5911H382.693ZM392.897 25.7956V28.3467H390.346V25.7956H392.897ZM392.897 18.1422H390.346V15.5911H392.897V18.1422ZM392.897 0.284445V2.83556H380.142V0.284445H392.897ZM433.715 5.38667V7.93778H431.164V5.38667H433.715ZM433.715 7.93778H436.266V10.4889H433.715V7.93778ZM415.857 15.5911V13.04H420.959V15.5911H415.857ZM415.857 2.83556V0.284445H443.919V2.83556H431.164V5.38667H428.613V2.83556H415.857ZM438.817 10.4889V13.04H436.266V10.4889H438.817ZM438.817 13.04H443.919V15.5911H438.817V13.04ZM420.959 13.04V10.4889H423.511V13.04H420.959ZM426.062 10.4889H423.511V7.93778H426.062V10.4889ZM426.062 7.93778V5.38667H428.613V7.93778H426.062ZM431.164 36H428.613V23.2444H413.306V20.6933H446.471V23.2444H431.164V36ZM454.124 30.8978H451.573V28.3467H454.124V30.8978ZM477.084 0.284445V36H474.533V15.5911H466.879V13.04H474.533V0.284445H477.084ZM454.124 23.2444H456.675V28.3467H454.124V23.2444ZM482.186 0.284445H484.737V36H482.186V0.284445ZM459.226 23.2444H456.675V15.5911H459.226V23.2444ZM459.226 15.5911V0.284445H461.777V15.5911H459.226ZM464.328 23.2444H461.777V15.5911H464.328V23.2444ZM464.328 28.3467V23.2444H466.879V28.3467H464.328ZM469.431 30.8978H466.879V28.3467H469.431V30.8978ZM515.351 5.38667V2.83556H517.902V5.38667H515.351ZM515.351 0.284445V2.83556H497.493V0.284445H515.351ZM492.391 18.1422V5.38667H494.942V18.1422H492.391ZM515.351 30.8978H523.004V33.4489H489.839V30.8978H497.493V20.6933H515.351V30.8978ZM515.351 20.6933V18.1422H517.902V20.6933H515.351ZM520.453 5.38667V18.1422H517.902V5.38667H520.453ZM497.493 18.1422V20.6933H494.942V18.1422H497.493ZM497.493 5.38667H494.942V2.83556H497.493V5.38667ZM512.799 30.8978V23.2444H500.044V30.8978H512.799Z" fill="black"/>
</svg>
