<svg width="351" height="68" viewBox="0 0 351 68" fill="none" xmlns="http://www.w3.org/2000/svg">
<rect x="0.789846" y="0.789846" width="349.112" height="66.347" fill="url(#paint0_linear_303_234)" stroke="black" stroke-width="1.57969"/>
<path d="M3.94922 66.347V34.7532V3.94922H349.112" stroke="#F8F7F7" stroke-width="7.89846"/>
<path d="M171.397 48.9053H167.447V23.2353H171.397V48.9053ZM157.574 44.9561H155.6V42.9814H151.65V44.9561H149.676V46.9307H145.727V44.9561H147.701V42.9814H149.676V41.0068H151.65V25.2099H155.6V41.0068H157.574V42.9814H159.549V44.9561H161.523V46.9307H157.574V44.9561ZM193.117 37.0576H189.168V35.083H187.193V33.1084H183.244V35.083H181.27V37.0576H177.32V35.083H179.295V33.1084H181.27V31.1338H183.244V25.2099H177.32V23.2353H193.117V25.2099H187.193V31.1338H189.168V33.1084H191.143V35.083H193.117V37.0576ZM201.016 29.1591H206.94V31.1338H201.016V37.0576H197.067V23.2353H201.016V29.1591ZM201.016 46.9307H199.041V48.9053H197.067V41.0068H179.295V39.0322H201.016V46.9307Z" fill="black"/>
<defs>
<linearGradient id="paint0_linear_303_234" x1="195.248" y1="-34.1454" x2="186.521" y2="151.33" gradientUnits="userSpaceOnUse">
<stop offset="0.231186" stop-color="#D9D9D9"/>
<stop offset="0.780501" stop-color="#737373"/>
</linearGradient>
</defs>
</svg>
