<svg width="334" height="68" viewBox="0 0 334 68" fill="none" xmlns="http://www.w3.org/2000/svg">
<path d="M329.407 0.000650644V32.3065V63.8047H0.000362277" stroke="#999999" stroke-width="7.41907"/>
<rect x="0.741907" y="0.741907" width="327.923" height="62.3202" fill="url(#paint0_linear_367_482)" stroke="black" stroke-width="1.48381"/>
<path d="M3.70996 62.3197V32.6434V3.70898H327.923" stroke="#DAD9D9" stroke-width="7.41907"/>
<path d="M72.9668 45.7095H69.2572V21.5975H72.9668V45.7095ZM59.9834 43.8548H52.5643V42H50.7095V40.1452H48.8548V27.1619H50.7095V25.3071H52.5643V23.4523H59.9834V25.3071H61.8381V27.1619H63.6929V40.1452H61.8381V42H59.9834V43.8548ZM54.4191 27.1619H52.5643V40.1452H54.4191V42H58.1286V40.1452H59.9834V27.1619H58.1286V25.3071H54.4191V27.1619ZM104.498 43.8548H95.224V42H93.3692V23.4523H106.353V32.7262H110.062V21.5975H113.772V45.7095H110.062V34.5809H106.353V42H104.498V43.8548ZM119.336 21.5975V45.7095H115.626V21.5975H119.336ZM102.643 25.3071H97.0787V42H102.643V25.3071ZM147.157 45.7095H143.448V21.5975H147.157V45.7095ZM134.174 42H132.319V40.1452H128.61V42H126.755V43.8548H123.046V42H124.9V40.1452H126.755V38.2905H128.61V23.4523H132.319V38.2905H134.174V40.1452H136.029V42H137.884V43.8548H134.174V42ZM176.834 45.7095H173.124V21.5975H176.834V45.7095ZM167.56 43.8548H163.85V42H161.996V40.1452H158.286V42H156.431V43.8548H152.722V42H154.577V40.1452H156.431V38.2905H158.286V25.3071H152.722V23.4523H167.56V25.3071H161.996V38.2905H163.85V40.1452H165.705V42H167.56V43.8548ZM184.253 34.5809V29.0166H202.801V25.3071H184.253V23.4523H206.51V30.8714H187.962V34.5809H206.51V36.4357H197.236V42H208.365V43.8548H182.398V42H193.527V36.4357H186.108V34.5809H184.253ZM226.913 21.5975H238.041V32.7262H236.186V34.5809H228.767V32.7262H234.332V23.4523H226.913V21.5975ZM241.751 25.3071H247.315V21.5975H251.025V34.5809H247.315V30.8714H241.751V29.0166H247.315V27.1619H241.751V25.3071ZM228.767 40.1452H247.315V38.2905H228.767V36.4357H251.025V42H232.477V43.8548H251.025V45.7095H230.622V43.8548H228.767V40.1452ZM271.427 34.5809H267.717V32.7262H265.863V30.8714H262.153V32.7262H260.298V34.5809H256.589V32.7262H258.444V30.8714H260.298V29.0166H262.153V23.4523H256.589V21.5975H271.427V23.4523H265.863V29.0166H267.717V30.8714H269.572V32.7262H271.427V34.5809ZM280.701 34.5809H276.991V29.0166H271.427V27.1619H276.991V21.5975H280.701V34.5809ZM258.444 38.2905H262.153V36.4357H276.991V38.2905H280.701V43.8548H276.991V45.7095H262.153V43.8548H258.444V38.2905ZM264.008 40.1452H262.153V42H264.008V43.8548H275.137V42H276.991V40.1452H275.137V38.2905H264.008V40.1452Z" fill="black"/>
<defs>
<linearGradient id="paint0_linear_367_482" x1="110.5" y1="-37" x2="110.153" y2="138.634" gradientUnits="userSpaceOnUse">
<stop offset="0.190177" stop-color="#D9D9D9"/>
<stop offset="0.769328" stop-color="#737373"/>
</linearGradient>
</defs>
</svg>
