<svg width="330" height="64" viewBox="0 0 330 64" fill="none" xmlns="http://www.w3.org/2000/svg">
<rect x="0.741907" y="0.741907" width="327.923" height="62.3202" fill="url(#paint0_linear_371_33)" stroke="black" stroke-width="1.48381"/>
<path d="M3.70898 62.3197V32.6434V3.70898H327.922" stroke="#F8F7F7" stroke-width="7.41907"/>
<path d="M72.9668 46.7095H69.2572V22.5975H72.9668V46.7095ZM59.9834 44.8548H52.5643V43H50.7095V41.1452H48.8548V28.1619H50.7095V26.3071H52.5643V24.4523H59.9834V26.3071H61.8381V28.1619H63.6929V41.1452H61.8381V43H59.9834V44.8548ZM54.4191 28.1619H52.5643V41.1452H54.4191V43H58.1286V41.1452H59.9834V28.1619H58.1286V26.3071H54.4191V28.1619ZM104.498 44.8548H95.224V43H93.3692V24.4523H106.353V33.7262H110.062V22.5975H113.772V46.7095H110.062V35.5809H106.353V43H104.498V44.8548ZM119.336 22.5975V46.7095H115.626V22.5975H119.336ZM102.643 26.3071H97.0787V43H102.643V26.3071ZM147.157 46.7095H143.448V22.5975H147.157V46.7095ZM134.174 43H132.319V41.1452H128.61V43H126.755V44.8548H123.046V43H124.9V41.1452H126.755V39.2905H128.61V24.4523H132.319V39.2905H134.174V41.1452H136.029V43H137.884V44.8548H134.174V43ZM176.834 46.7095H173.124V22.5975H176.834V46.7095ZM167.56 44.8548H163.85V43H161.996V41.1452H158.286V43H156.431V44.8548H152.722V43H154.577V41.1452H156.431V39.2905H158.286V26.3071H152.722V24.4523H167.56V26.3071H161.996V39.2905H163.85V41.1452H165.705V43H167.56V44.8548ZM184.253 35.5809V30.0166H202.801V26.3071H184.253V24.4523H206.51V31.8714H187.962V35.5809H206.51V37.4357H197.236V43H208.365V44.8548H182.398V43H193.527V37.4357H186.108V35.5809H184.253ZM226.913 22.5975H238.041V33.7262H236.186V35.5809H228.767V33.7262H234.332V24.4523H226.913V22.5975ZM241.751 26.3071H247.315V22.5975H251.025V35.5809H247.315V31.8714H241.751V30.0166H247.315V28.1619H241.751V26.3071ZM228.767 41.1452H247.315V39.2905H228.767V37.4357H251.025V43H232.477V44.8548H251.025V46.7095H230.622V44.8548H228.767V41.1452ZM271.427 35.5809H267.717V33.7262H265.863V31.8714H262.153V33.7262H260.298V35.5809H256.589V33.7262H258.444V31.8714H260.298V30.0166H262.153V24.4523H256.589V22.5975H271.427V24.4523H265.863V30.0166H267.717V31.8714H269.572V33.7262H271.427V35.5809ZM280.701 35.5809H276.991V30.0166H271.427V28.1619H276.991V22.5975H280.701V35.5809ZM258.444 39.2905H262.153V37.4357H276.991V39.2905H280.701V44.8548H276.991V46.7095H262.153V44.8548H258.444V39.2905ZM264.008 41.1452H262.153V43H264.008V44.8548H275.137V43H276.991V41.1452H275.137V39.2905H264.008V41.1452Z" fill="black"/>
<defs>
<linearGradient id="paint0_linear_371_33" x1="164.703" y1="4.56666e-07" x2="169.537" y2="151.25" gradientUnits="userSpaceOnUse">
<stop offset="0.190177" stop-color="#D9D9D9"/>
<stop offset="1" stop-color="#737373"/>
</linearGradient>
</defs>
</svg>
