<svg width="300" height="59" viewBox="0 0 300 59" fill="none" xmlns="http://www.w3.org/2000/svg">
<rect x="0.675676" y="0.675676" width="298.649" height="56.7568" fill="url(#paint0_linear_303_479)" stroke="black" stroke-width="1.35135"/>
<path d="M3.37793 56.7573V29.7303V3.37891H298.648" stroke="#DAD9D9" stroke-width="6.75676"/>
<path d="M128.04 41.5952V39.906H126.351V36.5276H141.554V34.8384H126.351V33.1492H141.554V31.46H124.662V29.7709H129.729V26.3925H133.108V29.7709H141.554V19.6357H144.932V24.7033H150V26.3925H144.932V38.2168H129.729V39.906H144.932V41.5952H128.04ZM128.04 24.7033V23.0141H124.662V21.3249H129.729V19.6357H133.108V21.3249H138.175V23.0141H134.797V24.7033H136.486V26.3925H138.175V28.0817H134.797V26.3925H133.108V24.7033H129.729V26.3925H128.04V28.0817H124.662V26.3925H126.351V24.7033H128.04ZM155.067 31.46V29.7709H153.378V28.0817H151.689V23.0141H153.378V21.3249H155.067V19.6357H161.824V21.3249H163.513V23.0141H170.27V19.6357H173.648V31.46H170.27V28.0817H163.513V29.7709H161.824V31.46H155.067ZM156.756 29.7709H160.135V28.0817H161.824V23.0141H160.135V21.3249H156.756V23.0141H155.067V28.0817H156.756V29.7709ZM170.27 24.7033H165.202V26.3925H170.27V24.7033ZM153.378 34.8384H156.756V33.1492H170.27V34.8384H173.648V39.906H170.27V41.5952H156.756V39.906H153.378V34.8384ZM158.446 39.906H168.581V38.2168H170.27V36.5276H168.581V34.8384H158.446V36.5276H156.756V38.2168H158.446V39.906Z" fill="black"/>
<defs>
<linearGradient id="paint0_linear_303_479" x1="150" y1="4.15898e-07" x2="154.402" y2="137.747" gradientUnits="userSpaceOnUse">
<stop offset="0.0808018" stop-color="#D9D9D9"/>
<stop offset="0.67823" stop-color="#737373"/>
</linearGradient>
</defs>
</svg>
