<svg width="308" height="100" viewBox="0 0 308 100" fill="none" xmlns="http://www.w3.org/2000/svg">
<path d="M10.5 77.5H15.75V79.25H1.75V77.5H7V75.75H10.5V77.5ZM22.75 86.25H28V88H22.75V98.5H19.25V75.75H22.75V86.25ZM12.25 96.75H5.25V95H3.5V93.25H1.75V84.5H3.5V82.75H5.25V81H12.25V82.75H14V84.5H15.75V93.25H14V95H12.25V96.75ZM7 84.5H5.25V93.25H7V95H10.5V93.25H12.25V84.5H10.5V82.75H7V84.5ZM50.75 86.25H56V88H50.75V98.5H47.25V75.75H50.75V86.25ZM31.5 95H29.75V77.5H33.25V95H40.25V93.25H43.75V95H42V96.75H31.5V95ZM94.5 84.5H75.25V82.75H73.5V75.75H94.5V77.5H77V82.75H94.5V84.5ZM75.25 98.5V96.75H73.5V93.25H91V91.5H73.5V89.75H82.25V88H71.75V86.25H96.25V88H85.75V89.75H94.5V95H77V96.75H94.5V98.5H75.25ZM124.25 86.25H122.5V84.5H119V86.25H117.25V88H113.75V86.25H115.5V84.5H117.25V82.75H119V75.75H122.5V82.75H124.25V84.5H126V86.25H127.75V88H124.25V86.25ZM133 88H129.5V82.75H126V81H129.5V75.75H133V88ZM138.25 88H134.75V75.75H138.25V88ZM131.25 96.75H129.5V95H127.75V93.25H126V95H124.25V96.75H122.5V98.5H115.5V96.75H120.75V95H122.5V93.25H124.25V89.75H129.5V93.25H131.25V95H133V96.75H138.25V98.5H131.25V96.75ZM171.5 86.25H169.75V84.5H166.25V86.25H164.5V88H157.5V86.25H162.75V84.5H164.5V82.75H166.25V77.5H169.75V82.75H171.5V84.5H173.25V86.25H178.5V88H171.5V86.25ZM180.25 96.75H155.75V95H180.25V96.75ZM204.75 86.25H210V88H204.75V98.5H201.25V75.75H204.75V86.25ZM196 95H194.25V96.75H185.5V95H183.75V77.5H196V95ZM192.5 79.25H187.25V95H192.5V79.25ZM222.25 88H215.25V86.25H213.5V84.5H211.75V79.25H213.5V77.5H215.25V75.75H222.25V77.5H224V79.25H225.75V84.5H224V86.25H222.25V88ZM234.5 88H231V75.75H234.5V88ZM217 79.25H215.25V84.5H217V86.25H220.5V84.5H222.25V79.25H220.5V77.5H217V79.25ZM213.5 93.25H231V91.5H213.5V89.75H234.5V95H217V96.75H234.5V98.5H215.25V96.75H213.5V93.25ZM255.5 91.5V89.75H257.25V88H253.75V86.25H257.25V84.5H255.5V82.75H259V84.5H260.75V82.75H264.25V84.5H262.5V86.25H266V88H262.5V89.75H264.25V91.5H260.75V89.75H259V91.5H255.5ZM271.25 77.5V75.75H274.75V77.5H276.5V79.25H278.25V81H274.75V79.25H271.25V81H267.75V79.25H269.5V77.5H271.25ZM285.25 77.5V75.75H288.75V77.5H290.5V79.25H292.25V81H288.75V79.25H285.25V81H281.75V79.25H283.5V77.5H285.25ZM297.5 91.5V89.75H299.25V88H295.75V86.25H299.25V84.5H297.5V82.75H301V84.5H302.75V82.75H306.25V84.5H304.5V86.25H308V88H304.5V89.75H306.25V91.5H302.75V89.75H301V91.5H297.5Z" fill="black"/>
<path d="M144.636 14.5455H148.273V18.1818H144.636V14.5455ZM148.273 10.9091H159.182V14.5455H148.273V10.9091ZM159.182 14.5455H162.818V21.8182H159.182V14.5455ZM151.909 21.8182H159.182V25.4545H151.909V21.8182ZM159.182 25.4545H162.818V36.3636H159.182V25.4545ZM159.182 36.3636V40H148.273V36.3636H159.182ZM148.273 36.3636H144.636V32.7273H148.273V36.3636Z" fill="black"/>
</svg>
