<svg width="591" height="42" viewBox="0 0 591 42" fill="none" xmlns="http://www.w3.org/2000/svg">
<path d="M0.125 19.375V16.25H34.5V0.625H40.75V25.625H34.5V19.375H15.75V25.625H9.5V19.375H0.125ZM9.5 0.625H15.75V3.75H18.875V6.875H22V10H25.125V13.125H18.875V10H15.75V6.875H9.5V10H6.375V13.125H0.125V10H3.25V6.875H6.375V3.75H9.5V0.625ZM15.75 35V31.875H18.875V25.625H25.125V31.875H28.25V35H34.5V38.125H25.125V35H18.875V38.125H9.5V35H15.75ZM3.25 38.125H9.5V41.25H3.25V38.125ZM34.5 38.125H40.75V41.25H34.5V38.125ZM62.625 6.875V10H65.75V19.375H62.625V25.625H56.375V19.375H53.25V10H56.375V6.875H62.625ZM56.375 35V28.75H62.625V35H56.375ZM134.5 22.5H109.5V19.375H106.375V16.25H103.25V10H106.375V6.875H109.5V3.75H134.5V6.875H137.625V10H140.75V16.25H137.625V19.375H134.5V22.5ZM112.625 10H109.5V16.25H112.625V19.375H131.375V16.25H134.5V10H131.375V6.875H112.625V10ZM143.875 28.75H125.125V41.25H118.875V28.75H100.125V25.625H143.875V28.75ZM190.75 41.25H184.5V0.625H190.75V41.25ZM168.875 38.125H153.25V35H150.125V16.25H165.75V6.875H150.125V3.75H172V19.375H156.375V35H165.75V31.875H172V35H168.875V38.125ZM225.125 19.375H222V22.5H203.25V19.375H200.125V0.625H225.125V19.375ZM237.625 10H247V13.125H237.625V22.5H231.375V0.625H237.625V10ZM218.875 3.75H206.375V19.375H218.875V3.75ZM209.5 38.125H237.625V41.25H206.375V38.125H203.25V25.625H209.5V38.125ZM290.75 41.25H284.5V38.125H250.125V35H284.5V0.625H290.75V41.25ZM268.875 25.625H256.375V22.5H253.25V19.375H250.125V10H253.25V6.875H256.375V3.75H268.875V6.875H272V10H275.125V19.375H272V22.5H268.875V25.625ZM259.5 10H256.375V19.375H259.5V22.5H265.75V19.375H268.875V10H265.75V6.875H259.5V10ZM365.75 41.25H359.5V0.625H365.75V41.25ZM328.25 35H325.125V3.75H331.375V19.375H340.75V3.75H347V35H343.875V38.125H328.25V35ZM340.75 22.5H331.375V35H340.75V22.5ZM400.125 19.375H397V22.5H378.25V19.375H375.125V0.625H400.125V19.375ZM415.75 22.5H409.5V0.625H415.75V22.5ZM393.875 3.75H381.375V19.375H393.875V3.75ZM378.25 31.875H409.5V28.75H378.25V25.625H415.75V35H384.5V38.125H415.75V41.25H381.375V38.125H378.25V31.875ZM468.875 38.125H453.25V35H450.125V3.75H472V19.375H478.25V0.625H484.5V41.25H478.25V22.5H472V35H468.875V38.125ZM493.875 0.625V41.25H487.625V0.625H493.875ZM465.75 6.875H456.375V35H465.75V6.875ZM540.75 41.25H534.5V0.625H540.75V41.25ZM518.875 35H515.75V31.875H509.5V35H506.375V38.125H500.125V35H503.25V31.875H506.375V28.75H509.5V3.75H515.75V28.75H518.875V31.875H522V35H525.125V38.125H518.875V35ZM590.75 41.25H584.5V0.625H590.75V41.25ZM575.125 38.125H568.875V35H565.75V31.875H559.5V35H556.375V38.125H550.125V35H553.25V31.875H556.375V28.75H559.5V6.875H550.125V3.75H575.125V6.875H565.75V28.75H568.875V31.875H572V35H575.125V38.125Z" fill="black"/>
</svg>
