<svg width="300" height="59" viewBox="0 0 300 59" fill="none" xmlns="http://www.w3.org/2000/svg">
<rect x="0.675676" y="0.675676" width="298.649" height="56.7568" fill="url(#paint0_linear_303_21)" stroke="black" stroke-width="1.35135"/>
<path d="M3.37793 56.7573V29.7303V3.37891H298.648" stroke="#F8F7F7" stroke-width="6.75676"/>
<path d="M128.04 41.5947V39.9055H126.351V36.5271H141.554V34.8379H126.351V33.1487H141.554V31.4596H124.662V29.7704H129.729V26.392H133.108V29.7704H141.554V19.6352H144.932V24.7028H150V26.392H144.932V38.2163H129.729V39.9055H144.932V41.5947H128.04ZM128.04 24.7028V23.0136H124.662V21.3244H129.729V19.6352H133.108V21.3244H138.175V23.0136H134.797V24.7028H136.486V26.392H138.175V28.0812H134.797V26.392H133.108V24.7028H129.729V26.392H128.04V28.0812H124.662V26.392H126.351V24.7028H128.04ZM155.067 31.4596V29.7704H153.378V28.0812H151.689V23.0136H153.378V21.3244H155.067V19.6352H161.824V21.3244H163.513V23.0136H170.27V19.6352H173.648V31.4596H170.27V28.0812H163.513V29.7704H161.824V31.4596H155.067ZM156.756 29.7704H160.135V28.0812H161.824V23.0136H160.135V21.3244H156.756V23.0136H155.067V28.0812H156.756V29.7704ZM170.27 24.7028H165.202V26.392H170.27V24.7028ZM153.378 34.8379H156.756V33.1487H170.27V34.8379H173.648V39.9055H170.27V41.5947H156.756V39.9055H153.378V34.8379ZM158.446 39.9055H168.581V38.2163H170.27V36.5271H168.581V34.8379H158.446V36.5271H156.756V38.2163H158.446V39.9055Z" fill="black"/>
<defs>
<linearGradient id="paint0_linear_303_21" x1="150" y1="4.15898e-07" x2="154.402" y2="137.747" gradientUnits="userSpaceOnUse">
<stop offset="0.190177" stop-color="#D9D9D9"/>
<stop offset="1" stop-color="#737373"/>
</linearGradient>
</defs>
</svg>
