<svg width="334" height="68" viewBox="0 0 334 68" fill="none" xmlns="http://www.w3.org/2000/svg">
<path d="M329.407 0.000162363V32.306V63.8042H0.000362277" stroke="#696969" stroke-width="7.41907"/>
<rect x="0.741907" y="0.741907" width="327.923" height="62.3202" fill="url(#paint0_linear_303_773)" stroke="black" stroke-width="1.48381"/>
<path d="M3.70996 62.3203V32.644V3.70959H327.923" stroke="#F8F7F7" stroke-width="7.41907"/>
<path d="M96.9834 43.8548H87.7095V42H85.8548V23.4523H98.8381V32.7262H102.548V21.5975H106.257V45.7095H102.548V34.5809H98.8381V42H96.9834V43.8548ZM111.822 21.5975V45.7095H108.112V21.5975H111.822ZM95.1286 25.3071H89.5643V42H95.1286V25.3071ZM139.643 45.7095H135.934V21.5975H139.643V45.7095ZM126.66 42H124.805V40.1452H121.095V42H119.241V43.8548H115.531V42H117.386V40.1452H119.241V38.2905H121.095V23.4523H124.805V38.2905H126.66V40.1452H128.514V42H130.369V43.8548H126.66V42ZM169.319 45.7095H165.61V21.5975H169.319V45.7095ZM160.046 43.8548H156.336V42H154.481V40.1452H150.772V42H148.917V43.8548H145.207V42H147.062V40.1452H148.917V38.2905H150.772V25.3071H145.207V23.4523H160.046V25.3071H154.481V38.2905H156.336V40.1452H158.191V42H160.046V43.8548ZM204.56 34.5809H200.85V32.7262H198.996V30.8714H195.286V32.7262H193.431V34.5809H189.722V32.7262H191.577V30.8714H193.431V29.0166H195.286V23.4523H189.722V21.5975H204.56V23.4523H198.996V29.0166H200.85V30.8714H202.705V32.7262H204.56V34.5809ZM213.834 34.5809H210.124V29.0166H204.56V27.1619H210.124V21.5975H213.834V34.5809ZM195.286 43.8548H213.834V45.7095H193.431V43.8548H191.577V36.4357H195.286V43.8548ZM236.091 29.0166H234.236V27.1619H230.527V29.0166H228.672V30.8714H221.253V29.0166H226.817V27.1619H228.672V25.3071H230.527V21.5975H234.236V25.3071H236.091V27.1619H237.946V29.0166H243.51V30.8714H236.091V29.0166ZM234.236 32.7262H245.365V34.5809H219.398V32.7262H230.527V29.0166H234.236V32.7262ZM221.253 38.2905H224.962V36.4357H239.801V38.2905H243.51V43.8548H239.801V45.7095H224.962V43.8548H221.253V38.2905ZM226.817 40.1452H224.962V42H226.817V43.8548H237.946V42H239.801V40.1452H237.946V38.2905H226.817V40.1452Z" fill="black"/>
<defs>
<linearGradient id="paint0_linear_303_773" x1="142.5" y1="-36" x2="115.562" y2="181.397" gradientUnits="userSpaceOnUse">
<stop offset="0.256687" stop-color="#D9D9D9"/>
<stop offset="0.831051" stop-color="#737373"/>
</linearGradient>
</defs>
</svg>
