<svg width="79" height="27" viewBox="0 0 79 27" fill="none" xmlns="http://www.w3.org/2000/svg">
<path d="M28 19.75H26.25V21.5H24.5V23.25H22.75V25H17.5V23.25H15.75V14.5H19.25V23.25H21V21.5H22.75V19.75H24.5V18H28V19.75ZM12.25 5.75H10.5V7.5H12.25V9.25H14V11H15.75C15.75 13.3333 15.75 14.5 15.75 14.5H14V12.75H12.25V11H10.5V9.25H8.75C8.75 11.5833 8.75 12.75 8.75 12.75H7C7 15.0833 7 16.25 7 16.25H3.5C3.5 13.9167 3.5 12.75 3.5 12.75H5.25C5.25 10.4167 5.25 9.25 5.25 9.25H7C7 6.91667 7 5.75 7 5.75H8.75V4H0V2.25H10.5V4H12.25V5.75ZM22.75 14.5V16.25H21V7.5H19.25V9.25H14V7.5H17.5V5.75H21C21 3.41667 21 2.25 21 2.25H24.5V14.5H22.75ZM54.25 16.25H31.5V14.5H35V12.75H36.75V11H38.5V9.25H42V11H40.25V12.75H38.5V14.5H54.25V16.25ZM50.75 11H47.25V9.25H45.5V7.5H43.75V5.75H40.25V7.5H38.5V9.25H36.75V11H33.25V9.25H35V7.5H36.75V5.75H38.5V4H40.25C40.25 1.66667 40.25 0.5 40.25 0.5H43.75C43.75 2.83333 43.75 4 43.75 4H45.5V5.75H47.25V7.5H49V9.25H50.75V11ZM36.75 25H35C35 22.6667 35 21.5 35 21.5H36.75V19.75H38.5V18H47.25V19.75H49C49 22.0833 49 23.25 49 23.25H47.25V25H45.5V26.75H36.75V25ZM38.5 25H43.75V23.25H45.5C45.5 20.9167 45.5 19.75 45.5 19.75H40.25V21.5H38.5C38.5 23.8333 38.5 25 38.5 25ZM78.75 12.75H73.5V14.5H71.75C71.75 16.8333 71.75 18 71.75 18H75.25V19.75H77C77 22.0833 77 23.25 77 23.25H75.25V25H73.5V26.75H64.75V25H63C63 22.6667 63 21.5 63 21.5H64.75V19.75H66.5V18H68.25C68.25 15.6667 68.25 14.5 68.25 14.5H70V12.75H56V11H63V9.25H64.75V7.5H66.5V5.75H68.25V4H70V2.25H61.25V0.5H71.75V2.25H73.5C73.5 4.58333 73.5 5.75 73.5 5.75H75.25V7.5H77C77 9.83333 77 11 77 11H78.75V12.75ZM66.5 25H71.75V23.25H73.5C73.5 20.9167 73.5 19.75 73.5 19.75H68.25V21.5H66.5C66.5 23.8333 66.5 25 66.5 25ZM66.5 11H75.25V9.25H73.5V7.5H71.75V5.75H70V7.5H68.25V9.25H66.5V11Z" fill="black"/>
</svg>
